<mxfile host="app.diagrams.net" modified="2022-03-23T11:17:35.488Z" agent="5.0 (Macintosh; Intel Mac OS X 10_14_6) AppleWebKit/537.36 (KHTML, like Gecko) Chrome/99.0.4844.51 Safari/537.36" etag="mwMKVWJRHjH5Fy0tF_vG" version="17.1.5" type="github">
  <diagram id="ZUUghf88n0iKDZj5hJ0J" name="Page-1">
    <mxGraphModel dx="2156" dy="1347" grid="1" gridSize="10" guides="0" tooltips="1" connect="0" arrows="0" fold="1" page="0" pageScale="1" pageWidth="827" pageHeight="1169" background="none" math="0" shadow="0">
      <root>
        <mxCell id="0" />
        <mxCell id="1" parent="0" />
        <mxCell id="YlMBUXd2ht9FfLMpNzXx-30" value="&lt;h1&gt;&lt;font color=&quot;#ffffff&quot;&gt;主要模块&lt;/font&gt;&lt;/h1&gt;&lt;p&gt;&lt;br&gt;&lt;/p&gt;" style="text;html=1;strokeColor=#56517e;fillColor=#d0cee2;spacing=5;spacingTop=-20;whiteSpace=wrap;overflow=hidden;rounded=0;sketch=0;opacity=60;" vertex="1" parent="1">
          <mxGeometry x="300" y="10" width="1180" height="540" as="geometry" />
        </mxCell>
        <mxCell id="YlMBUXd2ht9FfLMpNzXx-55" value="&lt;h1&gt;&lt;font color=&quot;#ffffff&quot;&gt;核心配置&lt;/font&gt;&lt;/h1&gt;" style="text;html=1;strokeColor=#9673a6;fillColor=#e1d5e7;spacing=5;spacingTop=-20;whiteSpace=wrap;overflow=hidden;rounded=0;sketch=0;opacity=90;" vertex="1" parent="1">
          <mxGeometry x="340" y="60" width="470" height="310" as="geometry" />
        </mxCell>
        <mxCell id="YlMBUXd2ht9FfLMpNzXx-29" value="&lt;h1&gt;&lt;font color=&quot;#ffffff&quot;&gt;生产管理&lt;/font&gt;&lt;/h1&gt;&lt;p&gt;&lt;font color=&quot;#ffffff&quot;&gt;生产环节主要内容&lt;/font&gt;&lt;/p&gt;" style="text;html=1;strokeColor=#9673a6;fillColor=#e1d5e7;spacing=5;spacingTop=-20;whiteSpace=wrap;overflow=hidden;rounded=0;sketch=0;opacity=90;" vertex="1" parent="1">
          <mxGeometry x="988" y="67" width="310" height="303" as="geometry" />
        </mxCell>
        <mxCell id="YlMBUXd2ht9FfLMpNzXx-1" value="物料清单&lt;br&gt;BOM" style="rounded=1;whiteSpace=wrap;html=1;fillColor=#182E3E;strokeColor=#FFFFFF;fontColor=#FFFFFF;" vertex="1" parent="1">
          <mxGeometry x="353" y="160" width="120" height="60" as="geometry" />
        </mxCell>
        <mxCell id="YlMBUXd2ht9FfLMpNzXx-2" value="&lt;span&gt;&lt;blockquote style=&quot;margin-left: 46px; line-height: 100%; margin-bottom: 0pt; margin-top: 0pt; font-size: 1px;&quot;&gt;产品-工时-工序配置&lt;/blockquote&gt;&lt;/span&gt;" style="rounded=1;whiteSpace=wrap;html=1;align=left;fillColor=#182E3E;strokeColor=#FFFFFF;fontColor=#FFFFFF;" vertex="1" parent="1">
          <mxGeometry x="353" y="250" width="120" height="60" as="geometry" />
        </mxCell>
        <mxCell id="YlMBUXd2ht9FfLMpNzXx-3" value="成品" style="rounded=1;whiteSpace=wrap;html=1;fillColor=#182E3E;strokeColor=#FFFFFF;fontColor=#FFFFFF;" vertex="1" parent="1">
          <mxGeometry x="510" y="140" width="120" height="60" as="geometry" />
        </mxCell>
        <mxCell id="YlMBUXd2ht9FfLMpNzXx-4" value="物料" style="rounded=1;whiteSpace=wrap;html=1;fillColor=#182E3E;strokeColor=#FFFFFF;fontColor=#FFFFFF;" vertex="1" parent="1">
          <mxGeometry x="510" y="220" width="120" height="60" as="geometry" />
        </mxCell>
        <mxCell id="YlMBUXd2ht9FfLMpNzXx-5" value="工序" style="rounded=1;whiteSpace=wrap;html=1;fillColor=#182E3E;strokeColor=#FFFFFF;fontColor=#FFFFFF;" vertex="1" parent="1">
          <mxGeometry x="510" y="300" width="120" height="60" as="geometry" />
        </mxCell>
        <mxCell id="YlMBUXd2ht9FfLMpNzXx-6" value="供应商" style="rounded=1;whiteSpace=wrap;html=1;fillColor=#182E3E;strokeColor=#FFFFFF;fontColor=#FFFFFF;" vertex="1" parent="1">
          <mxGeometry x="670" y="140" width="120" height="60" as="geometry" />
        </mxCell>
        <mxCell id="YlMBUXd2ht9FfLMpNzXx-7" value="项目" style="rounded=1;whiteSpace=wrap;html=1;fillColor=#182E3E;strokeColor=#FFFFFF;fontColor=#FFFFFF;" vertex="1" parent="1">
          <mxGeometry x="670" y="220" width="120" height="60" as="geometry" />
        </mxCell>
        <mxCell id="YlMBUXd2ht9FfLMpNzXx-8" value="设备" style="rounded=1;whiteSpace=wrap;html=1;fillColor=#182E3E;strokeColor=#FFFFFF;fontColor=#FFFFFF;" vertex="1" parent="1">
          <mxGeometry x="670" y="300" width="120" height="60" as="geometry" />
        </mxCell>
        <mxCell id="YlMBUXd2ht9FfLMpNzXx-9" value="采购订单" style="rounded=1;whiteSpace=wrap;html=1;fillColor=#182E3E;strokeColor=#FFFFFF;fontColor=#FFFFFF;" vertex="1" parent="1">
          <mxGeometry x="840" y="140" width="120" height="60" as="geometry" />
        </mxCell>
        <mxCell id="YlMBUXd2ht9FfLMpNzXx-10" value="到货-质检" style="rounded=1;whiteSpace=wrap;html=1;fillColor=#182E3E;strokeColor=#FFFFFF;fontColor=#FFFFFF;" vertex="1" parent="1">
          <mxGeometry x="840" y="220" width="120" height="60" as="geometry" />
        </mxCell>
        <mxCell id="YlMBUXd2ht9FfLMpNzXx-11" value="采购结算" style="rounded=1;whiteSpace=wrap;html=1;fillColor=#182E3E;strokeColor=#FFFFFF;fontColor=#FFFFFF;" vertex="1" parent="1">
          <mxGeometry x="840" y="300" width="120" height="60" as="geometry" />
        </mxCell>
        <mxCell id="YlMBUXd2ht9FfLMpNzXx-12" value="生产订单" style="rounded=1;whiteSpace=wrap;html=1;fillColor=#182E3E;strokeColor=#FFFFFF;fontColor=#FFFFFF;" vertex="1" parent="1">
          <mxGeometry x="1000" y="140" width="120" height="60" as="geometry" />
        </mxCell>
        <mxCell id="YlMBUXd2ht9FfLMpNzXx-13" value="产品任务-工序拆分" style="rounded=1;whiteSpace=wrap;html=1;fillColor=#182E3E;strokeColor=#FFFFFF;fontColor=#FFFFFF;" vertex="1" parent="1">
          <mxGeometry x="1000" y="220" width="120" height="60" as="geometry" />
        </mxCell>
        <mxCell id="YlMBUXd2ht9FfLMpNzXx-14" value="出货清单" style="rounded=1;whiteSpace=wrap;html=1;fillColor=#182E3E;strokeColor=#FFFFFF;fontColor=#FFFFFF;" vertex="1" parent="1">
          <mxGeometry x="1000" y="300" width="120" height="60" as="geometry" />
        </mxCell>
        <mxCell id="YlMBUXd2ht9FfLMpNzXx-16" value="领料" style="rounded=1;whiteSpace=wrap;html=1;fillColor=#182E3E;strokeColor=#FFFFFF;fontColor=#FFFFFF;" vertex="1" parent="1">
          <mxGeometry x="1160" y="140" width="120" height="60" as="geometry" />
        </mxCell>
        <mxCell id="YlMBUXd2ht9FfLMpNzXx-17" value="板材用料&lt;br&gt;废品管理" style="rounded=1;whiteSpace=wrap;html=1;fillColor=#182E3E;strokeColor=#FFFFFF;fontColor=#FFFFFF;" vertex="1" parent="1">
          <mxGeometry x="1160" y="220" width="120" height="60" as="geometry" />
        </mxCell>
        <mxCell id="YlMBUXd2ht9FfLMpNzXx-18" value="备货订单" style="rounded=1;whiteSpace=wrap;html=1;fillColor=#182E3E;strokeColor=#FFFFFF;fontColor=#FFFFFF;" vertex="1" parent="1">
          <mxGeometry x="1323" y="140" width="120" height="60" as="geometry" />
        </mxCell>
        <mxCell id="YlMBUXd2ht9FfLMpNzXx-19" value="备货库存" style="rounded=1;whiteSpace=wrap;html=1;fillColor=#182E3E;strokeColor=#FFFFFF;fontColor=#FFFFFF;" vertex="1" parent="1">
          <mxGeometry x="1323" y="220" width="120" height="60" as="geometry" />
        </mxCell>
        <mxCell id="YlMBUXd2ht9FfLMpNzXx-20" value="备货成本核算" style="rounded=1;whiteSpace=wrap;html=1;fillColor=#182E3E;strokeColor=#FFFFFF;fontColor=#FFFFFF;" vertex="1" parent="1">
          <mxGeometry x="1323" y="300" width="120" height="60" as="geometry" />
        </mxCell>
        <mxCell id="YlMBUXd2ht9FfLMpNzXx-23" value="售后追踪" style="rounded=1;whiteSpace=wrap;html=1;fillColor=#182E3E;strokeColor=#FFFFFF;fontColor=#FFFFFF;" vertex="1" parent="1">
          <mxGeometry x="1160" y="300" width="120" height="60" as="geometry" />
        </mxCell>
        <mxCell id="YlMBUXd2ht9FfLMpNzXx-25" value="设备维修" style="rounded=1;whiteSpace=wrap;html=1;fillColor=#182E3E;strokeColor=#FFFFFF;fontColor=#FFFFFF;" vertex="1" parent="1">
          <mxGeometry x="670" y="380" width="120" height="60" as="geometry" />
        </mxCell>
        <mxCell id="YlMBUXd2ht9FfLMpNzXx-26" value="设备保养" style="rounded=1;whiteSpace=wrap;html=1;fillColor=#182E3E;strokeColor=#FFFFFF;fontColor=#FFFFFF;" vertex="1" parent="1">
          <mxGeometry x="670" y="460" width="120" height="60" as="geometry" />
        </mxCell>
        <mxCell id="YlMBUXd2ht9FfLMpNzXx-31" value="&lt;h1&gt;&lt;font color=&quot;#ffffff&quot;&gt;核心功能&lt;/font&gt;&lt;/h1&gt;&lt;p&gt;&lt;br&gt;&lt;/p&gt;" style="text;html=1;strokeColor=#56517e;fillColor=#d0cee2;spacing=5;spacingTop=-20;whiteSpace=wrap;overflow=hidden;rounded=0;sketch=0;opacity=60;" vertex="1" parent="1">
          <mxGeometry x="300" y="600" width="1180" height="550" as="geometry" />
        </mxCell>
        <mxCell id="YlMBUXd2ht9FfLMpNzXx-56" value="采购管理" style="swimlane;fontStyle=0;childLayout=stackLayout;horizontal=1;startSize=30;horizontalStack=0;resizeParent=1;resizeParentMax=0;resizeLast=0;collapsible=1;marginBottom=0;rounded=0;sketch=0;fontColor=#FFFFFF;strokeColor=#FFFFFF;fillColor=#182E3E;opacity=60;" vertex="1" parent="1">
          <mxGeometry x="400" y="660" width="330" height="90" as="geometry" />
        </mxCell>
        <mxCell id="YlMBUXd2ht9FfLMpNzXx-57" value="MRP运算：基于物料清单+库存管理 计算需采购物料" style="text;strokeColor=none;fillColor=none;align=left;verticalAlign=middle;spacingLeft=4;spacingRight=4;overflow=hidden;points=[[0,0.5],[1,0.5]];portConstraint=eastwest;rotatable=0;rounded=0;sketch=0;fontColor=#FFFFFF;opacity=60;" vertex="1" parent="YlMBUXd2ht9FfLMpNzXx-56">
          <mxGeometry y="30" width="330" height="30" as="geometry" />
        </mxCell>
        <mxCell id="YlMBUXd2ht9FfLMpNzXx-59" value="库存占用与预警：生产下单后，占用库存并预警低存量物资" style="text;strokeColor=none;fillColor=none;align=left;verticalAlign=middle;spacingLeft=4;spacingRight=4;overflow=hidden;points=[[0,0.5],[1,0.5]];portConstraint=eastwest;rotatable=0;rounded=0;sketch=0;fontColor=#FFFFFF;opacity=60;" vertex="1" parent="YlMBUXd2ht9FfLMpNzXx-56">
          <mxGeometry y="60" width="330" height="30" as="geometry" />
        </mxCell>
        <mxCell id="YlMBUXd2ht9FfLMpNzXx-61" value="到货-质检" style="swimlane;fontStyle=0;childLayout=stackLayout;horizontal=1;startSize=30;horizontalStack=0;resizeParent=1;resizeParentMax=0;resizeLast=0;collapsible=1;marginBottom=0;rounded=0;sketch=0;fontColor=#FFFFFF;strokeColor=#FFFFFF;fillColor=#182E3E;opacity=60;" vertex="1" parent="1">
          <mxGeometry x="400" y="780" width="330" height="60" as="geometry" />
        </mxCell>
        <mxCell id="YlMBUXd2ht9FfLMpNzXx-62" value="生成到货单：支持修改数量、支持确认入库" style="text;strokeColor=none;fillColor=none;align=left;verticalAlign=middle;spacingLeft=4;spacingRight=4;overflow=hidden;points=[[0,0.5],[1,0.5]];portConstraint=eastwest;rotatable=0;rounded=0;sketch=0;fontColor=#FFFFFF;opacity=60;" vertex="1" parent="YlMBUXd2ht9FfLMpNzXx-61">
          <mxGeometry y="30" width="330" height="30" as="geometry" />
        </mxCell>
        <mxCell id="YlMBUXd2ht9FfLMpNzXx-64" value="采购结算" style="swimlane;fontStyle=0;childLayout=stackLayout;horizontal=1;startSize=30;horizontalStack=0;resizeParent=1;resizeParentMax=0;resizeLast=0;collapsible=1;marginBottom=0;rounded=0;sketch=0;fontColor=#FFFFFF;strokeColor=#FFFFFF;fillColor=#182E3E;opacity=60;" vertex="1" parent="1">
          <mxGeometry x="400" y="860" width="330" height="90" as="geometry" />
        </mxCell>
        <mxCell id="YlMBUXd2ht9FfLMpNzXx-65" value="支持基于到货数量计算采购金额" style="text;strokeColor=none;fillColor=none;align=left;verticalAlign=middle;spacingLeft=4;spacingRight=4;overflow=hidden;points=[[0,0.5],[1,0.5]];portConstraint=eastwest;rotatable=0;rounded=0;sketch=0;fontColor=#FFFFFF;opacity=60;" vertex="1" parent="YlMBUXd2ht9FfLMpNzXx-64">
          <mxGeometry y="30" width="330" height="30" as="geometry" />
        </mxCell>
        <mxCell id="YlMBUXd2ht9FfLMpNzXx-68" value="支持管理开票信息" style="text;strokeColor=none;fillColor=none;align=left;verticalAlign=middle;spacingLeft=4;spacingRight=4;overflow=hidden;points=[[0,0.5],[1,0.5]];portConstraint=eastwest;rotatable=0;rounded=0;sketch=0;fontColor=#FFFFFF;opacity=60;" vertex="1" parent="YlMBUXd2ht9FfLMpNzXx-64">
          <mxGeometry y="60" width="330" height="30" as="geometry" />
        </mxCell>
        <mxCell id="YlMBUXd2ht9FfLMpNzXx-71" value="&lt;ul&gt;&lt;li&gt;&lt;span&gt;采购&lt;/span&gt;&lt;/li&gt;&lt;li&gt;&lt;span&gt;是否需要处理退货？退款？&lt;/span&gt;&lt;/li&gt;&lt;/ul&gt;" style="whiteSpace=wrap;html=1;shape=mxgraph.basic.document;rounded=0;sketch=0;fontColor=#FFFFFF;strokeColor=#FFFFFF;fillColor=#182E3E;opacity=60;align=left;" vertex="1" parent="1">
          <mxGeometry x="1200" y="660" width="190" height="250" as="geometry" />
        </mxCell>
        <mxCell id="YlMBUXd2ht9FfLMpNzXx-80" value="生产订单" style="swimlane;fontStyle=0;childLayout=stackLayout;horizontal=1;startSize=30;horizontalStack=0;resizeParent=1;resizeParentMax=0;resizeLast=0;collapsible=1;marginBottom=0;rounded=0;sketch=0;fontColor=#FFFFFF;strokeColor=#FFFFFF;fillColor=#182E3E;opacity=60;" vertex="1" parent="1">
          <mxGeometry x="780" y="660" width="330" height="210" as="geometry" />
        </mxCell>
        <mxCell id="YlMBUXd2ht9FfLMpNzXx-81" value="设计抢单：验证设计师等级、验证交付日期" style="text;strokeColor=none;fillColor=none;align=left;verticalAlign=middle;spacingLeft=4;spacingRight=4;overflow=hidden;points=[[0,0.5],[1,0.5]];portConstraint=eastwest;rotatable=0;rounded=0;sketch=0;fontColor=#FFFFFF;opacity=60;" vertex="1" parent="YlMBUXd2ht9FfLMpNzXx-80">
          <mxGeometry y="30" width="330" height="30" as="geometry" />
        </mxCell>
        <mxCell id="YlMBUXd2ht9FfLMpNzXx-82" value="自动拆单：拆分产品任务、工时任务" style="text;strokeColor=none;fillColor=none;align=left;verticalAlign=middle;spacingLeft=4;spacingRight=4;overflow=hidden;points=[[0,0.5],[1,0.5]];portConstraint=eastwest;rotatable=0;rounded=0;sketch=0;fontColor=#FFFFFF;opacity=60;" vertex="1" parent="YlMBUXd2ht9FfLMpNzXx-80">
          <mxGeometry y="60" width="330" height="30" as="geometry" />
        </mxCell>
        <mxCell id="YlMBUXd2ht9FfLMpNzXx-88" value="任务回退：支持回退到任何工序，按照工序记录回退次数" style="text;strokeColor=none;fillColor=none;align=left;verticalAlign=middle;spacingLeft=4;spacingRight=4;overflow=hidden;points=[[0,0.5],[1,0.5]];portConstraint=eastwest;rotatable=0;rounded=0;sketch=0;fontColor=#FFFFFF;opacity=60;" vertex="1" parent="YlMBUXd2ht9FfLMpNzXx-80">
          <mxGeometry y="90" width="330" height="30" as="geometry" />
        </mxCell>
        <mxCell id="YlMBUXd2ht9FfLMpNzXx-89" value="进度同步：工序进度同步到产品任务，产品进度同步到订单" style="text;strokeColor=none;fillColor=none;align=left;verticalAlign=middle;spacingLeft=4;spacingRight=4;overflow=hidden;points=[[0,0.5],[1,0.5]];portConstraint=eastwest;rotatable=0;rounded=0;sketch=0;fontColor=#FFFFFF;opacity=60;" vertex="1" parent="YlMBUXd2ht9FfLMpNzXx-80">
          <mxGeometry y="120" width="330" height="30" as="geometry" />
        </mxCell>
        <mxCell id="YlMBUXd2ht9FfLMpNzXx-90" value="生产用时预估：订单总用时，产品总用时，预计开始时间、预计结束时间" style="text;strokeColor=none;fillColor=none;align=left;verticalAlign=middle;spacingLeft=4;spacingRight=4;overflow=hidden;points=[[0,0.5],[1,0.5]];portConstraint=eastwest;rotatable=0;rounded=0;sketch=0;fontColor=#FFFFFF;opacity=60;" vertex="1" parent="YlMBUXd2ht9FfLMpNzXx-80">
          <mxGeometry y="150" width="330" height="30" as="geometry" />
        </mxCell>
        <mxCell id="YlMBUXd2ht9FfLMpNzXx-91" value="出货清单：自动生成" style="text;strokeColor=none;fillColor=none;align=left;verticalAlign=middle;spacingLeft=4;spacingRight=4;overflow=hidden;points=[[0,0.5],[1,0.5]];portConstraint=eastwest;rotatable=0;rounded=0;sketch=0;fontColor=#FFFFFF;opacity=60;" vertex="1" parent="YlMBUXd2ht9FfLMpNzXx-80">
          <mxGeometry y="180" width="330" height="30" as="geometry" />
        </mxCell>
        <mxCell id="YlMBUXd2ht9FfLMpNzXx-83" value="领料管理" style="swimlane;fontStyle=0;childLayout=stackLayout;horizontal=1;startSize=30;horizontalStack=0;resizeParent=1;resizeParentMax=0;resizeLast=0;collapsible=1;marginBottom=0;rounded=0;sketch=0;fontColor=#FFFFFF;strokeColor=#FFFFFF;fillColor=#182E3E;opacity=60;" vertex="1" parent="1">
          <mxGeometry x="780" y="900" width="330" height="60" as="geometry" />
        </mxCell>
        <mxCell id="YlMBUXd2ht9FfLMpNzXx-84" value="基于物料清单，生成领料清单" style="text;strokeColor=none;fillColor=none;align=left;verticalAlign=middle;spacingLeft=4;spacingRight=4;overflow=hidden;points=[[0,0.5],[1,0.5]];portConstraint=eastwest;rotatable=0;rounded=0;sketch=0;fontColor=#FFFFFF;opacity=60;" vertex="1" parent="YlMBUXd2ht9FfLMpNzXx-83">
          <mxGeometry y="30" width="330" height="30" as="geometry" />
        </mxCell>
        <mxCell id="YlMBUXd2ht9FfLMpNzXx-85" value="售后管理" style="swimlane;fontStyle=0;childLayout=stackLayout;horizontal=1;startSize=30;horizontalStack=0;resizeParent=1;resizeParentMax=0;resizeLast=0;collapsible=1;marginBottom=0;rounded=0;sketch=0;fontColor=#FFFFFF;strokeColor=#FFFFFF;fillColor=#182E3E;opacity=60;" vertex="1" parent="1">
          <mxGeometry x="780" y="990" width="330" height="60" as="geometry" />
        </mxCell>
        <mxCell id="YlMBUXd2ht9FfLMpNzXx-86" value="用户自主保修" style="text;strokeColor=none;fillColor=none;align=left;verticalAlign=middle;spacingLeft=4;spacingRight=4;overflow=hidden;points=[[0,0.5],[1,0.5]];portConstraint=eastwest;rotatable=0;rounded=0;sketch=0;fontColor=#FFFFFF;opacity=60;" vertex="1" parent="YlMBUXd2ht9FfLMpNzXx-85">
          <mxGeometry y="30" width="330" height="30" as="geometry" />
        </mxCell>
        <mxCell id="YlMBUXd2ht9FfLMpNzXx-92" value="&lt;h1&gt;&lt;font color=&quot;#ffffff&quot;&gt;表结构设计&lt;/font&gt;&lt;/h1&gt;&lt;p&gt;&lt;br&gt;&lt;/p&gt;" style="text;html=1;strokeColor=#56517e;fillColor=#d0cee2;spacing=5;spacingTop=-20;whiteSpace=wrap;overflow=hidden;rounded=0;sketch=0;opacity=60;" vertex="1" parent="1">
          <mxGeometry x="1520" y="10" width="2280" height="2110" as="geometry" />
        </mxCell>
      </root>
    </mxGraphModel>
  </diagram>
</mxfile>
